Coordinates
version=1
nRows=42
nColumns=11
inDegrees=yes

Units are S.I. units (second, meters, Newtons, ...)
If the header above contains a line with 'inDegrees', this indicates whether rotational values are in degrees (yes) or radians (no).

endheader
time	pelvis_tilt	pelvis_tx	pelvis_ty	hip_flexion_l	hip_flexion_r	knee_angle_l	knee_angle_r	ankle_angle_l	ankle_angle_r	lumbar_extension
      1.87000000	     -4.09405963	     -0.46784443	      0.89928154	     32.22755354	      0.47818208	    -38.14414072	    -45.18738459	      7.66957151	    -20.07815643	      0.74409568
      1.88000000	     -4.19116243	     -0.45785807	      0.90157261	     31.28562444	      2.07105516	    -37.57456735	    -46.39007754	      7.99447142	    -18.61721301	      0.75857080
      1.89000000	     -4.25738478	     -0.44799249	      0.90396022	     30.27626732	      3.65666017	    -36.91686028	    -47.40208088	      8.36009197	    -17.19778365	      0.74826654
      1.90000000	     -4.30560350	     -0.43812186	      0.90635524	     29.23304054	      5.26991556	    -36.23347799	    -48.33049332	      8.68390375	    -15.80392711	      0.74504469
      1.91000000	     -4.36548849	     -0.42845326	      0.90882004	     28.12176873	      6.93466110	    -35.35948016	    -49.10864102	      8.91991745	    -14.60217548	      0.73663725
      1.92000000	     -4.37147664	     -0.41905888	      0.91124424	     27.00641438	      8.60481422	    -34.56959416	    -49.83376188	      9.23963983	    -13.43580551	      0.63018909
      1.93000000	     -4.30374827	     -0.40940705	      0.91360905	     25.77164201	     10.18026772	    -33.71188813	    -50.45112077	      9.49222055	    -12.40182456	      0.49374032
      1.94000000	     -4.23626509	     -0.39985027	      0.91572209	     24.56035110	     11.79129620	    -32.88000422	    -50.97281201	      9.77989251	    -11.59530999	      0.34571988
      1.95000000	     -4.09565579	     -0.39051724	      0.91772221	     23.29360175	     13.35078760	    -32.06079987	    -51.41055277	     10.09931892	    -10.88791029	      0.08174686
      1.96000000	     -3.94501231	     -0.38138991	      0.91938831	     22.05372473	     14.94546302	    -31.28812198	    -51.81020989	     10.42872001	    -10.41432631	     -0.23543653
      1.97000000	     -3.72840696	     -0.37203932	      0.92081826	     20.78752123	     16.43129899	    -30.61682992	    -52.03043307	     10.77055202	     -9.98993761	     -0.59545370
      1.98000000	     -3.50042691	     -0.36283290	      0.92196319	     19.53611726	     17.89375786	    -29.97646188	    -52.13811650	     11.16105015	     -9.76874811	     -0.99157212
      1.99000000	     -3.21979637	     -0.35348755	      0.92285005	     18.27398597	     19.24670181	    -29.43294935	    -52.08662874	     11.57799077	     -9.62160483	     -1.42531327
      2.00000000	     -2.90203053	     -0.34406869	      0.92344663	     17.00994608	     20.50993841	    -28.98210154	    -51.87453338	     12.06494015	     -9.43744354	     -1.89680568
      2.01000000	     -2.55908107	     -0.33462112	      0.92382803	     15.77021101	     21.66643564	    -28.62397590	    -51.48172454	     12.61078388	     -9.02231011	     -2.39544832
      2.02000000	     -2.11692448	     -0.32499230	      0.92406388	     14.41482910	     22.63308266	    -28.26798915	    -50.91242782	     13.14136893	     -8.78190691	     -2.98663399
      2.03000000	     -1.73695387	     -0.31544830	      0.92387475	     13.26722704	     23.59728189	    -28.17314903	    -50.12127369	     13.78323553	     -8.56628859	     -3.51681639
      2.04000000	     -1.25431952	     -0.30568049	      0.92355307	     12.04264596	     24.34936590	    -28.17194471	    -49.12667867	     14.45109762	     -8.50609929	     -4.13551011
      2.05000000	     -0.70864143	     -0.29576886	      0.92303506	     10.78723038	     24.92727783	    -28.24231750	    -47.94908453	     15.16469922	     -8.36029384	     -4.81617198
      2.06000000	     -0.08706048	     -0.28566151	      0.92240631	      9.40012665	     25.28777458	    -28.23967797	    -46.50412194	     15.85184524	     -8.25519580	     -5.55735299
      2.07000000	      0.54469222	     -0.27540315	      0.92142554	      8.12793848	     25.51569052	    -28.50458248	    -44.89234303	     16.65925956	     -8.02124758	     -6.29016457
      2.08000000	      1.21704181	     -0.26491201	      0.92030048	      6.81317426	     25.58166747	    -28.81690281	    -43.04704864	     17.50794492	     -7.85907462	     -7.04205588
      2.09000000	      1.87141512	     -0.25429968	      0.91889410	      5.49255405	     25.53797340	    -29.10345528	    -41.02905119	     18.37641689	     -7.53938802	     -7.74271731
      2.10000000	      2.54127577	     -0.24338829	      0.91746292	      4.07617189	     25.31580149	    -29.28969257	    -38.75768912	     19.21381276	     -7.40327475	     -8.42738166
      2.11000000	      3.23698873	     -0.23220365	      0.91593524	      2.59701703	     24.92425452	    -29.47047259	    -36.29355551	     20.06974974	     -7.19180806	     -9.10009874
      2.12000000	      3.86989169	     -0.22085884	      0.91420410	      1.17958338	     24.46017803	    -29.65067694	    -33.65791107	     20.87023469	     -7.01432096	     -9.67877987
      2.13000000	      4.48507970	     -0.20931228	      0.91235676	     -0.22225602	     23.88591125	    -29.85159915	    -30.86174646	     21.65263528	     -6.92377623	    -10.20993258
      2.14000000	      5.00550429	     -0.19764346	      0.91030379	     -1.51763679	     23.32385575	    -30.06348833	    -28.00599891	     22.39609253	     -6.83863405	    -10.61706807
      2.15000000	      5.43847416	     -0.18586579	      0.90812735	     -2.71969949	     22.79631122	    -30.28607951	    -25.23086524	     23.03978443	     -6.77391647	    -10.91715538
      2.16000000	      5.77473187	     -0.17385655	      0.90583105	     -3.85303488	     22.31776398	    -30.51020727	    -22.58521662	     23.65443887	     -6.62103790	    -11.08185509
      2.17000000	      6.00454242	     -0.16194199	      0.90342423	     -4.84245158	     21.97813174	    -30.76414678	    -20.26505093	     24.19703723	     -6.39663002	    -11.15378484
      2.18000000	      6.11907801	     -0.14985228	      0.90100520	     -5.67426187	     21.77907825	    -31.06985256	    -18.29713210	     24.52432571	     -6.31829687	    -11.07809744
      2.19000000	      6.18763944	     -0.13771527	      0.89866648	     -6.39554864	     21.68440278	    -31.48844023	    -16.84014722	     24.71642621	     -6.28599118	    -10.96572620
      2.20000000	      6.13300729	     -0.12541662	      0.89629242	     -6.88139557	     21.75639463	    -32.11190442	    -15.93935213	     24.69765781	     -6.26347452	    -10.69626765
      2.21000000	      6.12745861	     -0.11304919	      0.89417921	     -7.34292907	     21.80669163	    -32.84464699	    -15.58085452	     24.43424489	     -6.40946346	    -10.51318939
      2.22000000	      6.03375135	     -0.10049667	      0.89213241	     -7.65555723	     21.95482470	    -33.66478486	    -15.72746530	     23.99498227	     -6.47002499	    -10.21141752
      2.23000000	      5.95474988	     -0.08764967	      0.89029723	     -7.95525251	     21.96813660	    -34.54611390	    -16.11246442	     23.40092413	     -6.54391811	     -9.89779864
      2.24000000	      5.83273845	     -0.07456022	      0.88865377	     -8.19473309	     21.98855848	    -35.44072561	    -16.83746364	     22.38259609	     -6.52345949	     -9.51483466
      2.25000000	      5.77415835	     -0.06103580	      0.88727277	     -8.52166878	     21.77950252	    -36.29511135	    -17.65702713	     21.36223881	     -6.49053768	     -9.15258463
      2.26000000	      5.57693181	     -0.04724582	      0.88590927	     -8.71047702	     21.65466519	    -37.12410559	    -18.60949062	     20.17760743	     -6.95481016	     -8.60388477
      2.27000000	      5.12436937	     -0.03366344	      0.88486351	     -8.60263435	     22.08146067	    -37.88679916	    -20.15873159	     18.59503800	     -7.70815269	     -7.81321849
      2.28000000	      4.56670623	     -0.01984226	      0.88388171	     -8.36855730	     22.97364819	    -38.62995531	    -22.47915840	     16.77618880	     -6.57141169	     -6.87913230
